<?xml version="1.0" standalone="no"?>
<!DOCTYPE svg PUBLIC "-//W3C//DTD SVG 1.1//EN"
 "http://www.w3.org/Graphics/SVG/1.1/DTD/svg11.dtd">
<!-- Created with svg_stack (http://github.com/astraw/svg_stack) -->
<svg xmlns:sodipodi="http://sodipodi.sourceforge.net/DTD/sodipodi-0.dtd" xmlns="http://www.w3.org/2000/svg" version="1.1" width="200.0" height="200.0">
  <defs/>
  <g id="id0:id0" transform="matrix(1.25,0,0,1.25,0.0,0.0)"><g transform="translate(0.000000,160.000000) scale(0.040000,-0.040000)" fill="#5725b6" stroke="none">
<path d="M0 2000 l0 -2000 2000 0 2000 0 0 2000 0 2000 -2000 0 -2000 0 0 -2000z m2165 1565 c66 -8 131 -17 145 -20 14 -4 45 -11 70 -17 171 -40 401 -147 543 -253 333 -248 542 -580 626 -990 66 -325 12 -690 -150 -1004 -81 -155 -154 -256 -284 -386 -234 -236 -495 -376 -830 -444 -325 -66 -690 -12 -1004 150 -435 225 -729 619 -830 1114 -66 325 -13 685 150 1005 107 209 274 405 476 555 142 106 371 212 543 253 93 22 107 25 205 37 137 17 200 17 340 0z"/>
</g>
</g>
  <g id="id1:id1" transform="matrix(1.25,0,0,1.25,0.0,0.0)"><g transform="translate(0.000000,160.000000) scale(0.040000,-0.040000)" fill="#5828ba" stroke="none">
<path d="M0 2000 l0 -2000 2000 0 2000 0 0 2000 0 2000 -2000 0 -2000 0 0 -2000z m2165 1565 c66 -8 131 -17 145 -20 14 -4 45 -11 70 -17 171 -40 401 -147 543 -253 333 -248 542 -580 626 -990 66 -325 12 -690 -150 -1004 -81 -155 -154 -256 -284 -386 -234 -236 -495 -376 -830 -444 -325 -66 -690 -12 -1004 150 -435 225 -729 619 -830 1114 -66 325 -13 685 150 1005 107 209 274 405 476 555 142 106 371 212 543 253 93 22 107 25 205 37 137 17 200 17 340 0z"/>
</g>
</g>
  <g id="id2:id2" transform="matrix(1.25,0,0,1.25,0.0,0.0)"><g transform="translate(0.000000,160.000000) scale(0.040000,-0.040000)" fill="#5a29ba" stroke="none">
<path d="M0 2000 l0 -2000 2000 0 2000 0 0 2000 0 2000 -2000 0 -2000 0 0 -2000z m2165 1565 c66 -8 131 -17 145 -20 14 -4 45 -11 70 -17 171 -40 401 -147 543 -253 333 -248 542 -580 626 -990 66 -325 12 -690 -150 -1004 -81 -155 -154 -256 -284 -386 -234 -236 -495 -376 -830 -444 -325 -66 -690 -12 -1004 150 -435 225 -729 619 -830 1114 -66 325 -13 685 150 1005 107 209 274 405 476 555 142 106 371 212 543 253 93 22 107 25 205 37 137 17 200 17 340 0z"/>
</g>
</g>
  <g id="id3:id3" transform="matrix(1.25,0,0,1.25,0.0,0.0)"><g transform="translate(0.000000,160.000000) scale(0.040000,-0.040000)" fill="#5828b5" stroke="none">
<path d="M0 2000 l0 -2000 2000 0 2000 0 0 2000 0 2000 -2000 0 -2000 0 0 -2000z m2165 1565 c66 -8 131 -17 145 -20 14 -4 45 -11 70 -17 171 -40 401 -147 543 -253 333 -248 542 -580 626 -990 66 -325 12 -690 -150 -1004 -81 -155 -154 -256 -284 -386 -234 -236 -495 -376 -830 -444 -325 -66 -690 -12 -1004 150 -435 225 -729 619 -830 1114 -66 325 -13 685 150 1005 107 209 274 405 476 555 142 106 371 212 543 253 93 22 107 25 205 37 137 17 200 17 340 0z"/>
</g>
</g>
  <g id="id4:id4" transform="matrix(1.25,0,0,1.25,0.0,0.0)"><g transform="translate(0.000000,160.000000) scale(0.040000,-0.040000)" fill="#e991e2" stroke="none">
<path d="M0 2000 l0 -2000 2000 0 2000 0 0 2000 0 2000 -2000 0 -2000 0 0 -2000z m2165 1565 c66 -8 131 -17 145 -20 14 -4 45 -11 70 -17 171 -40 401 -147 543 -253 333 -248 542 -580 626 -990 66 -325 12 -690 -150 -1004 -81 -155 -154 -256 -284 -386 -234 -236 -495 -376 -830 -444 -325 -66 -690 -12 -1004 150 -435 225 -729 619 -830 1114 -66 325 -13 685 150 1005 107 209 274 405 476 555 142 106 371 212 543 253 93 22 107 25 205 37 137 17 200 17 340 0z"/>
<path d="M1881 2710 c-185 -39 -363 -154 -450 -288 -29 -46 -42 -102 -22 -102 5 0 12 -8 15 -17 6 -16 5 -16 -12 0 -18 17 -20 17 -35 -6 -26 -40 -50 -137 -44 -179 14 -101 138 -138 261 -79 59 29 170 137 226 221 59 88 191 219 265 262 81 46 117 58 186 58 83 0 82 17 -2 25 -51 5 -73 4 -79 -5 -5 -8 -9 -6 -12 8 -12 43 -178 36 -284 -13 -52 -24 -183 -119 -184 -134 -1 -3 -22 -28 -47 -56 -35 -38 -41 -42 -27 -18 31 51 125 145 185 184 97 64 181 91 299 98 l105 6 -45 19 c-52 21 -228 31 -299 16z"/>
<path d="M1170 2625 c-10 -12 -10 -18 0 -30 7 -8 18 -15 25 -15 7 0 18 7 25 15 10 12 10 18 0 30 -7 8 -18 15 -25 15 -7 0 -18 -7 -25 -15z"/>
<path d="M952 2416 c-32 -30 -37 -40 -37 -79 0 -85 75 -142 155 -118 84 25 108 143 41 203 -47 42 -109 40 -159 -6z"/>
</g>
</g>
  <g id="id5:id5" transform="matrix(1.25,0,0,1.25,0.0,0.0)"><g transform="translate(0.000000,160.000000) scale(0.040000,-0.040000)" fill="#b760e3" stroke="none">
<path d="M0 2000 l0 -2000 2000 0 2000 0 0 2000 0 2000 -2000 0 -2000 0 0 -2000z m2165 1565 c66 -8 131 -17 145 -20 14 -4 45 -11 70 -17 171 -40 401 -147 543 -253 333 -248 542 -580 626 -990 66 -325 12 -690 -150 -1004 -81 -155 -154 -256 -284 -386 -234 -236 -495 -376 -830 -444 -325 -66 -690 -12 -1004 150 -435 225 -729 619 -830 1114 -66 325 -13 685 150 1005 107 209 274 405 476 555 142 106 371 212 543 253 93 22 107 25 205 37 137 17 200 17 340 0z"/>
<path d="M2209 2681 c8 -5 -26 -10 -90 -13 -117 -5 -199 -32 -298 -97 -60 -39 -154 -133 -185 -184 -14 -24 -8 -20 27 18 25 28 46 53 47 56 1 15 132 110 184 134 106 49 272 56 284 13 3 -14 7 -16 12 -8 6 9 28 10 79 5 84 -8 85 -25 2 -25 -69 0 -105 -12 -186 -58 -74 -43 -206 -174 -265 -262 -56 -84 -167 -192 -226 -221 -87 -41 -186 -36 -232 14 -12 13 -26 41 -31 62 -7 32 -9 35 -10 13 -1 -39 16 -70 53 -96 54 -37 98 -45 161 -29 30 8 55 13 55 11 0 -2 -16 -10 -35 -20 -51 -24 -122 -23 -174 3 -24 12 -49 20 -54 16 -15 -9 2 -104 28 -158 51 -104 177 -148 311 -109 123 36 236 136 414 369 174 227 285 274 469 198 9 -3 11 -1 7 6 -15 24 -91 51 -145 52 -31 0 -49 3 -41 6 8 2 21 7 29 9 30 9 -55 51 -110 54 -96 5 -114 2 -164 -25 -56 -29 -129 -47 -143 -33 -10 10 -89 -65 -145 -139 -58 -78 -56 -64 5 25 98 142 230 254 342 287 63 19 149 19 211 0 27 -8 50 -13 52 -11 6 6 -32 33 -87 63 -30 17 -75 42 -100 57 -40 23 -85 38 -51 17z m-449 -535 c0 -2 -8 -10 -17 -17 -16 -13 -17 -12 -4 4 13 16 21 21 21 13z m-70 -67 c-30 -25 -85 -62 -70 -46 17 17 93 77 98 77 4 0 -9 -14 -28 -31z"/>
<path d="M1191 2647 c2 -1 13 -9 24 -17 19 -14 19 -14 6 3 -7 9 -18 17 -24 17 -6 0 -8 -1 -6 -3z"/>
<path d="M2990 2604 c-122 -21 -420 -130 -420 -154 0 -4 7 -13 16 -21 15 -13 23 -11 144 28 116 38 183 41 215 8 31 -31 31 -59 0 -114 -14 -24 -24 -46 -22 -48 7 -6 128 129 158 176 28 43 39 104 21 115 -14 8 -85 15 -112 10z"/>
<path d="M1504 2518 l-19 -23 23 19 c21 18 27 26 19 26 -2 0 -12 -10 -23 -22z"/>
<path d="M1023 2453 c9 -2 23 -2 30 0 6 3 -1 5 -18 5 -16 0 -22 -2 -12 -5z"/>
<path d="M939 2413 l-24 -28 28 24 c25 23 32 31 24 31 -2 0 -14 -12 -28 -27z"/>
<path d="M1152 2335 c0 -16 2 -22 5 -12 2 9 2 23 0 30 -3 6 -5 -1 -5 -18z"/>
<path d="M1378 2317 c-15 -36 -15 -39 -1 -19 15 21 17 22 35 5 17 -16 18 -16 12 0 -3 9 -10 17 -14 17 -5 0 -10 9 -12 20 -2 14 -8 8 -20 -23z"/>
<path d="M1331 2194 c0 -11 3 -14 6 -6 3 7 2 16 -1 19 -3 4 -6 -2 -5 -13z"/>
</g>
</g>
  <g id="id6:id6" transform="matrix(1.25,0,0,1.25,0.0,0.0)"><g transform="translate(0.000000,160.000000) scale(0.040000,-0.040000)" fill="#8e50fb" stroke="none">
<path d="M0 2000 l0 -2000 2000 0 2000 0 0 2000 0 2000 -2000 0 -2000 0 0 -2000z m2165 1565 c66 -8 131 -17 145 -20 14 -4 45 -11 70 -17 171 -40 401 -147 543 -253 333 -248 542 -580 626 -990 66 -325 12 -690 -150 -1004 -81 -155 -154 -256 -284 -386 -234 -236 -495 -376 -830 -444 -325 -66 -690 -12 -1004 150 -435 225 -729 619 -830 1114 -66 325 -13 685 150 1005 107 209 274 405 476 555 142 106 371 212 543 253 93 22 107 25 205 37 137 17 200 17 340 0z"/>
<path d="M2294 1899 c-27 -34 -59 -73 -71 -87 -13 -14 -23 -28 -23 -31 0 -3 -10 -18 -22 -31 -13 -14 -32 -37 -43 -50 l-20 -24 25 19 c14 10 48 50 75 88 28 39 70 93 94 119 24 27 42 51 39 54 -3 2 -27 -23 -54 -57z"/>
<path d="M2467 1829 c-15 -12 -35 -35 -43 -53 -15 -29 -13 -28 25 12 31 33 45 42 61 37 15 -5 19 -3 14 9 -8 21 -23 20 -57 -5z"/>
<path d="M1044 1698 c-103 -107 -134 -154 -134 -207 0 -42 33 -55 118 -47 97 10 412 121 412 146 0 3 -6 15 -14 25 -13 19 -16 18 -102 -9 -117 -37 -217 -45 -244 -21 -39 35 -26 88 43 178 16 20 27 37 24 37 -2 0 -49 -46 -103 -102z"/>
<path d="M2396 1712 c-9 -16 11 -35 28 -25 14 8 13 10 -4 21 -10 6 -21 8 -24 4z"/>
<path d="M2895 1678 c-27 -15 -35 -28 -35 -61 0 -39 15 -64 44 -71 84 -21 132 90 56 129 -34 18 -39 18 -65 3z"/>
<path d="M2082 1649 c-12 -19 -11 -19 8 -9 11 6 20 15 20 20 0 17 -15 11 -28 -11z"/>
<path d="M2315 1609 c-10 -15 3 -25 16 -12 7 7 7 13 1 17 -6 3 -14 1 -17 -5z"/>
</g>
</g>
  <g id="id7:id7" transform="matrix(1.25,0,0,1.25,0.0,0.0)"><g transform="translate(0.000000,160.000000) scale(0.040000,-0.040000)" fill="#9f50cf" stroke="none">
<path d="M0 2000 l0 -2000 2000 0 2000 0 0 2000 0 2000 -2000 0 -2000 0 0 -2000z m2165 1565 c66 -8 131 -17 145 -20 14 -4 45 -11 70 -17 171 -40 401 -147 543 -253 333 -248 542 -580 626 -990 66 -325 12 -690 -150 -1004 -81 -155 -154 -256 -284 -386 -234 -236 -495 -376 -830 -444 -325 -66 -690 -12 -1004 150 -435 225 -729 619 -830 1114 -66 325 -13 685 150 1005 107 209 274 405 476 555 142 106 371 212 543 253 93 22 107 25 205 37 137 17 200 17 340 0z"/>
<path d="M1963 2723 c20 -2 54 -2 75 0 20 2 3 4 -38 4 -41 0 -58 -2 -37 -4z"/>
<path d="M1878 2713 c7 -3 16 -2 19 1 4 3 -2 6 -13 5 -11 0 -14 -3 -6 -6z"/>
<path d="M2118 2713 c7 -3 16 -2 19 1 4 3 -2 6 -13 5 -11 0 -14 -3 -6 -6z"/>
<path d="M2170 2700 c8 -5 22 -9 30 -9 10 0 8 3 -5 9 -27 12 -43 12 -25 0z"/>
<path d="M1798 2693 c7 -3 16 -2 19 1 4 3 -2 6 -13 5 -11 0 -14 -3 -6 -6z"/>
<path d="M2260 2664 c25 -15 70 -40 100 -57 55 -30 93 -57 87 -63 -2 -2 -25 3 -52 11 -62 19 -148 19 -211 0 -112 -33 -244 -145 -342 -287 -61 -89 -63 -103 -5 -25 56 74 135 149 145 139 14 -14 87 4 143 33 50 27 68 30 164 25 55 -3 140 -45 110 -54 -8 -2 -21 -7 -29 -9 -8 -3 10 -6 41 -6 54 -1 130 -28 145 -52 4 -7 2 -9 -7 -6 -103 42 -177 44 -254 7 -76 -37 -125 -87 -288 -297 -5 -7 -7 -13 -4 -13 3 0 46 51 95 113 95 120 135 156 210 190 116 52 259 4 349 -118 l23 -30 -15 51 c-8 29 -27 78 -41 109 -14 32 -23 64 -20 71 6 14 136 56 233 75 55 10 66 9 88 -5 50 -33 28 -106 -62 -205 -86 -96 -45 -71 77 46 131 125 171 179 178 238 4 38 1 45 -22 60 -56 37 -249 -6 -450 -99 -43 -20 -86 -36 -94 -36 -8 0 -31 18 -50 40 -39 46 -121 105 -209 149 -74 38 -95 40 -33 5z m842 -70 c18 -11 7 -72 -21 -115 -30 -47 -151 -182 -158 -176 -2 2 8 24 22 48 31 55 31 83 0 114 -32 33 -99 30 -215 -8 -121 -39 -129 -41 -144 -28 -9 8 -16 17 -16 21 0 17 238 112 350 139 84 20 154 22 182 5z"/>
<path d="M1165 2640 c-3 -6 1 -7 9 -4 18 7 21 14 7 14 -6 0 -13 -4 -16 -10z"/>
<path d="M1660 2640 c-9 -6 -10 -10 -3 -10 6 0 15 5 18 10 8 12 4 12 -15 0z"/>
<path d="M1544 2558 l-19 -23 23 19 c21 18 27 26 19 26 -2 0 -12 -10 -23 -22z"/>
<path d="M1459 2473 l-24 -28 28 24 c25 23 32 31 24 31 -2 0 -14 -12 -28 -27z"/>
<path d="M934 2418 l-19 -23 23 19 c21 18 27 26 19 26 -2 0 -12 -10 -23 -22z"/>
<path d="M1136 2395 c24 -39 24 -40 24 -28 0 6 -9 21 -21 34 l-20 24 17 -30z"/>
<path d="M1375 2333 c-14 -31 -23 -58 -20 -61 3 -3 5 -3 5 0 0 3 11 31 25 62 14 31 22 56 20 56 -3 0 -17 -25 -30 -57z"/>
<path d="M902 2330 c0 -19 2 -27 5 -17 2 9 2 25 0 35 -3 9 -5 1 -5 -18z"/>
<path d="M1114 2238 l-19 -23 23 19 c21 18 27 26 19 26 -2 0 -12 -10 -23 -22z"/>
<path d="M1023 2203 c9 -2 23 -2 30 0 6 3 -1 5 -18 5 -16 0 -22 -2 -12 -5z"/>
<path d="M1322 2175 c0 -16 2 -22 5 -12 2 9 2 23 0 30 -3 6 -5 -1 -5 -18z"/>
<path d="M1739 2133 c-13 -16 -12 -17 4 -4 9 7 17 15 17 17 0 8 -8 3 -21 -13z"/>
<path d="M1311 2034 c-1 -151 34 -226 131 -280 46 -25 63 -29 134 -29 72 0 87 4 155 37 46 23 99 61 140 100 36 35 44 44 18 21 -146 -129 -289 -179 -402 -139 -65 23 -106 58 -132 111 -26 54 -43 149 -28 158 5 4 30 -4 54 -16 52 -26 123 -27 174 -3 19 10 35 18 35 20 0 2 -25 -3 -55 -11 -88 -22 -180 16 -209 87 -15 34 -15 33 -15 -56z"/>
<path d="M1668 2074 c-54 -45 -58 -49 -33 -36 26 15 92 71 83 72 -3 0 -26 -16 -50 -36z"/>
<path d="M1964 1968 l-29 -33 33 29 c30 28 37 36 29 36 -2 0 -16 -15 -33 -32z"/>
</g>
</g>
  <g id="id8:id8" transform="matrix(1.25,0,0,1.25,0.0,0.0)"><g transform="translate(0.000000,160.000000) scale(0.040000,-0.040000)" fill="#7c3cec" stroke="none">
<path d="M0 2000 l0 -2000 2000 0 2000 0 0 2000 0 2000 -2000 0 -2000 0 0 -2000z m2165 1565 c66 -8 131 -17 145 -20 14 -4 45 -11 70 -17 171 -40 401 -147 543 -253 333 -248 542 -580 626 -990 66 -325 12 -690 -150 -1004 -81 -155 -154 -256 -284 -386 -234 -236 -495 -376 -830 -444 -325 -66 -690 -12 -1004 150 -435 225 -729 619 -830 1114 -66 325 -13 685 150 1005 107 209 274 405 476 555 142 106 371 212 543 253 93 22 107 25 205 37 137 17 200 17 340 0z"/>
<path d="M2360 2331 c-17 -5 -4 -7 40 -7 105 -1 179 -41 242 -132 16 -24 32 -41 35 -38 8 7 -47 78 -84 110 -62 52 -174 85 -233 67z"/>
<path d="M2285 2303 c-54 -29 -103 -73 -156 -141 -29 -37 -43 -58 -31 -48 39 34 24 5 -34 -65 -78 -95 -89 -94 -16 1 42 55 12 23 -89 -97 -42 -49 -104 -110 -138 -136 -34 -25 -55 -47 -48 -50 6 -2 1 -5 -13 -5 -14 0 -52 -10 -85 -22 -106 -39 -226 -13 -299 64 -20 22 -26 25 -17 9 31 -59 127 -102 230 -104 59 -1 62 -2 31 -10 -51 -13 -117 -2 -182 32 -66 33 -72 26 -38 -41 l20 -40 -32 -14 -33 -15 32 6 c25 4 33 1 43 -17 14 -26 18 -21 -46 -53 -82 -41 -285 -106 -355 -113 -86 -8 -119 5 -119 47 0 17 8 47 17 67 17 36 182 216 190 208 2 -2 -10 -24 -27 -49 -35 -53 -40 -105 -11 -131 14 -13 32 -16 77 -13 l59 3 -60 2 c-68 2 -85 13 -85 54 0 41 31 97 91 162 87 95 35 62 -86 -55 -134 -130 -175 -186 -175 -240 0 -69 60 -85 203 -53 114 26 306 103 348 140 14 12 19 12 42 -6 96 -76 262 -102 394 -62 137 42 234 118 353 278 86 114 145 175 192 197 45 21 142 22 182 2 36 -19 42 -14 22 17 -9 14 -13 28 -9 32 11 11 3 89 -11 111 -22 33 -84 93 -90 87 -3 -3 -6 2 -6 11 0 11 -8 17 -25 17 -14 0 -25 4 -25 9 0 12 -126 13 -148 2 -9 -5 -35 -17 -56 -27 -21 -11 -64 -44 -93 -74 -30 -30 -50 -45 -44 -33 20 39 107 120 157 147 27 14 45 25 39 25 -5 0 -23 -7 -40 -16z m-340 -391 l-58 -57 53 63 c29 34 56 60 59 57 3 -3 -21 -31 -54 -63z m364 -10 c-24 -26 -66 -80 -94 -119 -27 -38 -61 -78 -75 -88 l-25 -19 20 24 c11 13 30 36 43 50 12 13 22 28 22 31 0 3 10 17 23 31 12 14 44 53 71 87 27 34 51 59 54 57 3 -3 -15 -27 -39 -54z m-1159 -106 c0 -2 -8 -10 -17 -17 -16 -13 -17 -12 -4 4 13 16 21 21 21 13z m960 -136 c0 -5 -9 -14 -20 -20 -19 -10 -20 -10 -8 9 13 22 28 28 28 11z"/>
<path d="M2476 1855 c-64 -34 -113 -123 -95 -173 20 -52 106 -3 146 84 18 41 22 58 14 72 -15 28 -34 33 -65 17z m48 -21 c5 -12 1 -14 -14 -9 -16 5 -30 -4 -61 -37 -38 -40 -40 -41 -25 -12 16 32 62 73 82 74 7 0 15 -7 18 -16z m-100 -147 c-11 -6 -19 -5 -25 4 -12 20 0 30 21 17 17 -11 18 -13 4 -21z"/>
<path d="M2885 1680 c-3 -6 1 -7 9 -4 18 7 21 14 7 14 -6 0 -13 -4 -16 -10z"/>
<path d="M2955 1678 c11 -6 26 -18 33 -26 6 -9 12 -11 12 -4 0 12 -39 42 -55 42 -5 0 -1 -6 10 -12z"/>
<path d="M2851 1614 c0 -16 6 -39 15 -50 8 -10 12 -12 8 -4 -4 8 -11 30 -15 50 -7 35 -7 35 -8 4z"/>
<path d="M2300 1615 c-14 -17 -7 -45 13 -45 19 0 37 21 37 42 0 22 -32 24 -50 3z m31 -18 c-13 -13 -26 -3 -16 12 3 6 11 8 17 5 6 -4 6 -10 -1 -17z"/>
<path d="M3001 1614 c0 -11 3 -14 6 -6 3 7 2 16 -1 19 -3 4 -6 -2 -5 -13z"/>
<path d="M1270 1599 c-35 -12 -43 -16 -20 -12 40 7 112 32 90 31 -8 0 -40 -8 -70 -19z"/>
<path d="M2979 1567 c-11 -15 -27 -21 -52 -21 -22 0 -32 -3 -24 -8 21 -14 45 -9 74 16 15 13 26 26 23 29 -3 3 -12 -5 -21 -16z"/>
</g>
</g>
  <g id="id9:id9" transform="matrix(1.25,0,0,1.25,0.0,0.0)"><g transform="translate(0.000000,160.000000) scale(0.040000,-0.040000)" fill="#511be2" stroke="none">
<path d="M0 2000 l0 -2000 2000 0 2000 0 0 2000 0 2000 -2000 0 -2000 0 0 -2000z m2165 1565 c66 -8 131 -17 145 -20 14 -4 45 -11 70 -17 171 -40 401 -147 543 -253 333 -248 542 -580 626 -990 66 -325 12 -690 -150 -1004 -81 -155 -154 -256 -284 -386 -234 -236 -495 -376 -830 -444 -325 -66 -690 -12 -1004 150 -435 225 -729 619 -830 1114 -66 325 -13 685 150 1005 107 209 274 405 476 555 142 106 371 212 543 253 93 22 107 25 205 37 137 17 200 17 340 0z"/>
<path d="M2355 2321 c-88 -23 -140 -64 -253 -206 -53 -66 -123 -151 -156 -190 -48 -56 -51 -62 -17 -30 23 22 84 92 136 155 116 144 152 180 201 204 21 10 47 22 56 27 22 11 148 10 148 -2 0 -5 11 -9 25 -9 17 0 25 -6 25 -17 0 -9 3 -14 6 -11 6 6 68 -54 90 -87 14 -22 22 -100 11 -111 -4 -4 0 -18 9 -32 20 -31 14 -36 -22 -17 -40 20 -137 19 -182 -2 -47 -22 -106 -83 -192 -197 -119 -160 -216 -236 -353 -278 -129 -39 -300 -13 -392 59 -11 9 12 -15 51 -54 85 -82 156 -122 283 -158 83 -24 106 -27 200 -22 190 8 337 73 471 207 109 110 163 221 190 392 16 104 1 184 -48 250 -50 68 -68 83 -122 107 -54 23 -124 33 -165 22z m186 -483 c8 -14 4 -31 -14 -72 -40 -87 -126 -136 -146 -84 -18 50 31 139 95 173 31 16 50 11 65 -17z m-191 -226 c0 -21 -18 -42 -37 -42 -20 0 -27 28 -13 45 18 21 50 19 50 -3z"/>
<path d="M1361 1788 c1 -19 17 -55 18 -41 1 8 21 3 59 -16 65 -34 131 -45 182 -32 31 8 28 9 -31 10 -79 1 -141 21 -191 62 -22 17 -38 24 -37 17z"/>
</g>
</g>
  <g id="id10:id10" transform="matrix(1.25,0,0,1.25,0.0,0.0)"><g transform="translate(0.000000,160.000000) scale(0.040000,-0.040000)" fill="#633399" stroke="none">
<path d="M0 2000 l0 -2000 2000 0 2000 0 0 2000 0 2000 -2000 0 -2000 0 0 -2000z m2165 1565 c66 -8 131 -17 145 -20 14 -4 45 -11 70 -17 171 -40 401 -147 543 -253 333 -248 542 -580 626 -990 66 -325 12 -690 -150 -1004 -81 -155 -154 -256 -284 -386 -234 -236 -495 -376 -830 -444 -325 -66 -690 -12 -1004 150 -435 225 -729 619 -830 1114 -66 325 -13 685 150 1005 107 209 274 405 476 555 142 106 371 212 543 253 93 22 107 25 205 37 137 17 200 17 340 0z"/>
<path d="M1973 2733 c15 -2 39 -2 55 0 15 2 2 4 -28 4 -30 0 -43 -2 -27 -4z"/>
<path d="M1893 2723 c9 -2 23 -2 30 0 6 3 -1 5 -18 5 -16 0 -22 -2 -12 -5z"/>
<path d="M2083 2723 c9 -2 23 -2 30 0 6 3 -1 5 -18 5 -16 0 -22 -2 -12 -5z"/>
<path d="M1815 2710 c-25 -11 1 -11 35 0 20 6 21 8 5 8 -11 0 -29 -3 -40 -8z"/>
<path d="M2207 2695 c99 -34 207 -99 276 -167 32 -32 64 -58 71 -58 7 0 49 16 92 36 199 92 394 136 449 100 30 -20 33 -61 8 -114 -10 -21 -65 -86 -123 -147 -103 -107 -104 -108 -27 -40 130 115 186 203 175 276 -11 78 -196 59 -447 -47 -47 -20 -90 -41 -95 -45 -20 -18 -43 -8 -86 37 -83 84 -277 193 -345 193 -11 0 12 -11 52 -24z"/>
<path d="M1723 2680 c-34 -14 -28 -21 7 -9 17 6 30 13 30 15 0 6 -12 4 -37 -6z"/>
<path d="M1198 2653 c25 -5 46 -37 36 -56 -5 -9 -4 -9 6 0 19 18 -13 63 -43 62 l-22 -2 23 -4z"/>
<path d="M1150 2629 c-9 -16 -8 -25 6 -40 9 -10 21 -19 27 -19 5 0 -1 8 -13 18 -19 16 -21 22 -11 40 6 12 9 22 7 22 -3 0 -10 -9 -16 -21z"/>
<path d="M1624 2624 c-18 -14 -18 -15 4 -4 12 6 22 13 22 15 0 8 -5 6 -26 -11z"/>
<path d="M1579 2593 c-13 -16 -12 -17 4 -4 16 13 21 21 13 21 -2 0 -10 -8 -17 -17z"/>
<path d="M1495 2518 l-60 -63 63 60 c34 33 62 61 62 62 0 8 -10 -1 -65 -59z"/>
<path d="M2835 2469 c-25 -7 -22 -8 16 -4 123 11 116 -83 -18 -226 -45 -49 -52 -70 -16 -51 10 6 27 21 38 34 l20 23 -26 -22 c-48 -43 -41 -23 14 38 31 33 63 76 71 94 43 91 -1 142 -99 114z"/>
<path d="M1018 2463 c12 -2 30 -2 40 0 9 3 -1 5 -23 4 -22 0 -30 -2 -17 -4z"/>
<path d="M965 2450 c-3 -6 1 -7 9 -4 18 7 21 14 7 14 -6 0 -13 -4 -16 -10z"/>
<path d="M1081 2458 c2 -2 20 -16 39 -33 l35 -30 -29 33 c-17 17 -34 32 -40 32 -5 0 -7 -1 -5 -2z"/>
<path d="M2745 2450 c-25 -11 1 -11 35 0 20 6 21 8 5 8 -11 0 -29 -3 -40 -8z"/>
<path d="M929 2423 c-13 -16 -12 -17 4 -4 9 7 17 15 17 17 0 8 -8 3 -21 -13z"/>
<path d="M2655 2424 c-22 -8 -44 -19 -49 -24 -5 -5 6 -45 28 -99 21 -51 43 -129 50 -178 13 -78 14 -82 15 -38 1 61 -19 143 -58 235 -33 77 -32 81 37 99 23 7 42 14 42 16 0 8 -23 4 -65 -11z"/>
<path d="M1395 2394 c-9 -14 -15 -27 -13 -30 2 -2 12 10 22 26 21 37 15 40 -9 4z"/>
<path d="M899 2373 c-5 -15 -9 -36 -7 -47 2 -11 8 1 14 27 12 52 9 61 -7 20z"/>
<path d="M1160 2334 c0 -19 -5 -45 -11 -57 -10 -21 -10 -21 5 -3 14 18 23 96 11 96 -3 0 -5 -16 -5 -36z"/>
<path d="M1357 2319 c-25 -61 -39 -110 -33 -116 3 -4 6 0 6 8 0 8 11 41 25 73 13 33 23 62 20 64 -2 2 -10 -11 -18 -29z"/>
<path d="M900 2293 c0 -7 12 -25 28 -41 15 -15 20 -19 11 -7 -9 11 -21 29 -27 40 -6 11 -12 14 -12 8z"/>
<path d="M1119 2233 c-13 -16 -12 -17 4 -4 9 7 17 15 17 17 0 8 -8 3 -21 -13z"/>
<path d="M1070 2210 c-8 -5 -10 -10 -5 -10 6 0 17 5 25 10 8 5 11 10 5 10 -5 0 -17 -5 -25 -10z"/>
<path d="M1304 2124 c-15 -143 9 -275 76 -416 12 -26 19 -52 15 -58 -3 -5 -1 -10 4 -10 16 0 13 21 -9 67 -11 22 -24 58 -29 79 -6 22 -20 66 -32 99 -19 53 -21 73 -16 183 3 67 4 122 2 122 -2 0 -7 -30 -11 -66z"/>
<path d="M2692 1950 c0 -19 2 -27 5 -17 2 9 2 25 0 35 -3 9 -5 1 -5 -18z"/>
<path d="M2681 1894 c0 -11 3 -14 6 -6 3 7 2 16 -1 19 -3 4 -6 -2 -5 -13z"/>
<path d="M1179 1845 c-58 -43 -230 -218 -260 -264 -20 -32 -29 -58 -29 -88 0 -37 4 -44 30 -58 16 -8 50 -15 75 -15 45 0 180 29 172 37 -2 2 -33 -3 -68 -12 -135 -31 -199 -14 -199 54 0 54 41 110 175 240 121 117 173 150 86 55 -29 -31 -61 -74 -71 -95 -32 -62 -23 -119 19 -119 11 0 9 5 -7 16 -14 9 -22 26 -22 43 0 33 62 131 114 180 56 54 46 70 -15 26z"/>
<path d="M2866 1674 c-37 -37 -35 -86 3 -125 40 -39 74 -38 117 5 43 43 44 77 5 117 -39 38 -88 40 -125 3z m111 1 c62 -44 12 -159 -62 -141 -62 16 -84 80 -44 130 24 30 71 35 106 11z"/>
<path d="M1345 1630 c-13 -6 -15 -9 -5 -9 8 0 22 4 30 9 18 12 2 12 -25 0z"/>
<path d="M1275 1610 c-13 -5 -14 -9 -5 -9 8 0 24 4 35 9 13 5 14 9 5 9 -8 0 -24 -4 -35 -9z"/>
<path d="M1185 1590 l-30 -8 30 0 c17 0 39 3 50 8 l20 9 -20 -1 c-11 0 -33 -4 -50 -8z"/>
<path d="M1400 1555 c-76 -40 -75 -46 2 -10 29 14 59 25 67 25 7 0 42 -27 77 -60 35 -32 74 -64 86 -70 15 -7 12 -3 -7 12 -16 12 -57 48 -91 80 -33 32 -63 58 -65 58 -2 -1 -33 -16 -69 -35z"/>
<path d="M1245 1490 c-38 -16 -66 -29 -60 -29 12 -1 145 49 145 55 0 7 -13 3 -85 -26z"/>
<path d="M1660 1425 c0 -7 61 -37 66 -33 2 3 -12 12 -31 21 -19 9 -35 15 -35 12z"/>
<path d="M1808 1363 c7 -3 16 -2 19 1 4 3 -2 6 -13 5 -11 0 -14 -3 -6 -6z"/>
<path d="M1968 1333 c23 -2 59 -2 80 0 20 2 1 4 -43 4 -44 0 -61 -2 -37 -4z"/>
</g>
</g>
  <g id="id11:id11" transform="matrix(1.25,0,0,1.25,0.0,0.0)"><g transform="translate(0.000000,160.000000) scale(0.040000,-0.040000)" fill="#2c145d" stroke="none">
<path d="M0 2000 l0 -2000 2000 0 2000 0 0 2000 0 2000 -2000 0 -2000 0 0 -2000z m2165 1565 c66 -8 131 -17 145 -20 14 -4 45 -11 70 -17 171 -40 401 -147 543 -253 333 -248 542 -580 626 -990 66 -325 12 -690 -150 -1004 -81 -155 -154 -256 -284 -386 -234 -236 -495 -376 -830 -444 -325 -66 -690 -12 -1004 150 -435 225 -729 619 -830 1114 -66 325 -13 685 150 1005 107 209 274 405 476 555 142 106 371 212 543 253 93 22 107 25 205 37 137 17 200 17 340 0z"/>
</g>
</g>
  <g id="id12:id12" transform="matrix(1.25,0,0,1.25,0.0,0.0)"><g transform="translate(0.000000,160.000000) scale(0.040000,-0.040000)" fill="#341864" stroke="none">
<path d="M0 2000 l0 -2000 2000 0 2000 0 0 2000 0 2000 -2000 0 -2000 0 0 -2000z m2165 1565 c66 -8 131 -17 145 -20 14 -4 45 -11 70 -17 171 -40 401 -147 543 -253 333 -248 542 -580 626 -990 66 -325 12 -690 -150 -1004 -81 -155 -154 -256 -284 -386 -234 -236 -495 -376 -830 -444 -325 -66 -690 -12 -1004 150 -435 225 -729 619 -830 1114 -66 325 -13 685 150 1005 107 209 274 405 476 555 142 106 371 212 543 253 93 22 107 25 205 37 137 17 200 17 340 0z"/>
<path d="M1860 2730 c-16 -6 -6 -7 30 -3 30 3 57 7 59 9 8 7 -64 2 -89 -6z"/>
<path d="M2051 2736 c2 -2 31 -6 64 -9 39 -4 50 -3 30 2 -31 9 -102 14 -94 7z"/>
<path d="M1762 2703 c-24 -8 -41 -17 -39 -19 2 -2 28 5 58 15 30 11 47 20 39 19 -8 0 -34 -6 -58 -15z"/>
<path d="M2224 2701 c28 -11 52 -19 54 -16 6 5 -38 23 -76 30 -15 3 -5 -3 22 -14z"/>
<path d="M1650 2649 c-30 -16 -64 -39 -75 -51 -16 -16 -12 -15 15 4 19 14 54 35 78 47 23 12 42 24 42 26 0 7 -1 7 -60 -26z"/>
<path d="M2355 2637 c38 -23 97 -68 131 -99 59 -55 86 -69 98 -49 4 5 -2 7 -13 4 -13 -3 -34 10 -67 43 -50 49 -188 144 -208 144 -6 0 20 -19 59 -43z"/>
<path d="M1162 2654 c-12 -8 -22 -20 -22 -26 0 -7 6 -4 13 5 6 9 23 21 37 26 14 5 18 10 10 10 -9 1 -26 -6 -38 -15z"/>
<path d="M1235 2637 c17 -26 17 -28 0 -47 -22 -25 -52 -26 -78 -2 -16 13 -19 14 -15 2 9 -28 48 -40 79 -24 39 20 47 51 19 78 l-22 21 17 -28z"/>
<path d="M2945 2631 c-19 -6 -1 -7 50 -4 119 6 147 -16 131 -103 -10 -50 -85 -142 -197 -240 -55 -49 -107 -93 -116 -97 -33 -19 -23 6 20 52 141 151 142 244 2 221 -68 -11 -194 -48 -212 -62 -9 -7 -4 -27 18 -78 86 -203 81 -397 -16 -607 -26 -57 -52 -92 -122 -161 -100 -101 -178 -149 -304 -188 -127 -39 -230 -42 -354 -10 -131 34 -211 76 -295 153 -37 35 -73 63 -80 63 -9 0 -182 -71 -245 -101 -57 -26 41 8 137 48 l107 46 65 -60 c79 -72 152 -112 275 -153 132 -43 251 -43 388 1 253 80 430 260 495 504 42 159 31 301 -36 457 l-33 77 28 10 c103 39 168 53 224 49 l50 -3 -1 -37 c-1 -40 -67 -141 -125 -191 -24 -21 -29 -31 -20 -40 20 -20 72 17 200 142 91 87 126 130 145 171 32 68 32 82 2 116 -20 24 -31 28 -87 30 -35 2 -77 -1 -94 -5z"/>
<path d="M2865 2610 c-13 -5 -14 -9 -5 -9 8 0 24 4 35 9 13 5 14 9 5 9 -8 0 -24 -4 -35 -9z"/>
<path d="M2800 2590 c-13 -9 -13 -10 0 -10 8 0 22 5 30 10 13 9 13 10 0 10 -8 0 -22 -5 -30 -10z"/>
<path d="M1490 2523 l-55 -58 58 55 c31 30 57 56 57 57 0 8 -10 -1 -60 -54z"/>
<path d="M2750 2570 c-8 -5 -10 -10 -5 -10 6 0 17 5 25 10 8 5 11 10 5 10 -5 0 -17 -5 -25 -10z"/>
<path d="M2655 2531 c-79 -39 -66 -39 16 -1 35 16 60 29 54 30 -5 0 -37 -13 -70 -29z"/>
<path d="M993 2472 c-6 -4 13 -7 42 -7 29 0 48 3 42 7 -7 4 -25 8 -42 8 -16 0 -35 -4 -42 -8z"/>
<path d="M928 2431 c-18 -16 -31 -31 -28 -34 3 -2 20 11 38 29 40 42 34 44 -10 5z"/>
<path d="M1122 2435 c54 -63 62 -114 27 -172 -26 -41 -66 -63 -117 -63 -77 0 -148 77 -138 150 4 28 3 31 -5 17 -25 -43 19 -130 82 -162 64 -34 149 -8 190 57 15 25 19 45 16 81 -4 41 -11 55 -43 85 -28 27 -31 29 -12 7z"/>
<path d="M1423 2448 c-15 -20 -25 -38 -20 -38 3 0 12 11 21 25 17 26 16 35 -1 13z"/>
<path d="M1366 2353 c-6 -14 -5 -15 5 -6 7 7 10 15 7 18 -3 3 -9 -2 -12 -12z"/>
<path d="M1346 2315 c-9 -26 -7 -32 5 -12 6 10 9 21 6 23 -2 3 -7 -2 -11 -11z"/>
<path d="M1326 2265 c-3 -9 -6 -22 -5 -28 0 -7 5 -1 10 12 5 13 8 26 5 28 -2 2 -6 -3 -10 -12z"/>
<path d="M1305 2203 c-3 -10 -9 -68 -12 -129 -7 -133 11 -229 64 -342 19 -41 33 -75 31 -77 -5 -5 -115 -34 -190 -51 -87 -19 -113 -9 -105 41 7 44 63 130 116 178 45 41 51 57 23 57 -26 0 -81 -42 -189 -144 -116 -110 -163 -178 -163 -239 0 -63 23 -81 108 -83 l67 -2 -60 7 c-87 10 -105 22 -105 74 0 59 35 110 156 229 106 104 170 156 181 144 4 -3 -14 -28 -39 -54 -60 -61 -108 -139 -108 -174 0 -46 36 -62 107 -48 79 16 196 50 207 60 5 5 -1 29 -14 57 -70 149 -96 312 -71 447 11 60 9 82 -4 49z"/>
<path d="M2871 1694 c-13 -9 -29 -32 -37 -50 -16 -38 -8 -71 27 -103 35 -32 41 -25 8 8 -38 39 -40 88 -3 125 37 37 86 35 125 -3 39 -40 38 -74 -5 -117 -19 -19 -30 -34 -24 -34 5 0 23 13 39 29 41 41 39 83 -5 127 -39 39 -85 45 -125 18z"/>
<path d="M1115 1440 c-33 -10 -52 -19 -42 -19 21 -1 127 28 127 35 0 7 -22 3 -85 -16z"/>
</g>
</g>
  <g id="id13:id13" transform="matrix(1.25,0,0,1.25,0.0,0.0)"><g transform="translate(0.000000,160.000000) scale(0.040000,-0.040000)" fill="#120828" stroke="none">
<path d="M0 2000 l0 -2000 2000 0 2000 0 0 2000 0 2000 -2000 0 -2000 0 0 -2000z m2165 1565 c66 -8 131 -17 145 -20 14 -4 45 -11 70 -17 171 -40 401 -147 543 -253 333 -248 542 -580 626 -990 66 -325 12 -690 -150 -1004 -81 -155 -154 -256 -284 -386 -234 -236 -495 -376 -830 -444 -325 -66 -690 -12 -1004 150 -435 225 -729 619 -830 1114 -66 325 -13 685 150 1005 107 209 274 405 476 555 142 106 371 212 543 253 93 22 107 25 205 37 137 17 200 17 340 0z"/>
</g>
</g>
  <g id="id14:id14" transform="matrix(1.25,0,0,1.25,0.0,0.0)"><g transform="translate(0.000000,160.000000) scale(0.040000,-0.040000)" fill="#0b032a" stroke="none">
<path d="M0 2000 l0 -2000 2000 0 2000 0 0 2000 0 2000 -2000 0 -2000 0 0 -2000z m2307 1541 c507 -104 942 -459 1134 -923 44 -108 35 -103 -21 11 -70 144 -98 182 -217 299 -89 88 -224 199 -258 213 -5 2 -50 26 -98 53 -417 230 -932 248 -1362 48 -197 -91 -318 -177 -470 -334 -211 -216 -351 -484 -406 -773 -18 -94 -23 -156 -23 -290 0 -274 43 -462 160 -691 83 -164 111 -204 218 -309 91 -90 79 -89 -24 2 -144 126 -267 292 -355 477 -64 134 -98 233 -127 375 -32 153 -32 449 0 603 130 626 609 1109 1228 1237 133 27 162 29 354 26 117 -3 194 -10 267 -24z m-139 -816 c118 -28 241 -98 336 -189 26 -25 51 -46 57 -46 5 0 29 10 52 22 73 37 208 87 296 109 112 28 185 23 218 -15 29 -34 29 -48 -3 -116 -19 -41 -54 -84 -145 -171 -128 -125 -180 -162 -200 -142 -9 9 -4 19 20 40 58 50 124 151 125 191 l1 37 -50 3 c-56 4 -121 -10 -224 -49 l-28 -10 33 -77 c46 -107 68 -219 60 -312 -24 -313 -216 -553 -519 -649 -137 -44 -256 -44 -388 -1 -123 41 -196 81 -275 153 l-65 60 -107 -46 c-183 -77 -267 -101 -358 -102 -102 0 -124 15 -124 82 0 61 47 129 163 239 108 102 163 144 189 144 28 0 22 -16 -23 -57 -53 -48 -109 -134 -116 -178 -8 -50 18 -60 105 -41 75 17 185 46 190 51 2 2 -12 36 -31 77 -53 113 -71 209 -64 342 10 184 75 327 211 461 92 90 185 145 306 182 92 27 261 31 358 8z m-932 -78 c32 -28 27 -60 -15 -81 -22 -12 -32 -12 -52 -3 -34 17 -38 69 -7 91 30 21 42 20 74 -7z m2252 -163 c-3 -14 -5 -12 -10 9 -3 19 -2 25 4 19 6 -6 8 -18 6 -28z m-2400 -18 c112 -58 122 -194 20 -256 -112 -68 -264 53 -214 170 33 79 127 121 194 86z m2419 -58 c-3 -7 -5 -2 -5 12 0 14 2 19 5 13 2 -7 2 -19 0 -25z m20 -75 c-3 -10 -5 -4 -5 12 0 17 2 24 5 18 2 -7 2 -21 0 -30z m20 -115 c-2 -13 -4 -5 -4 17 -1 22 1 32 4 23 2 -10 2 -28 0 -40z m20 -275 c-2 -32 -3 -8 -3 52 0 61 1 87 3 58 2 -29 2 -78 0 -110z m-20 -195 c-2 -13 -4 -5 -4 17 -1 22 1 32 4 23 2 -10 2 -28 0 -40z m-551 -72 c38 -38 44 -77 18 -115 -46 -65 -145 -57 -179 15 -14 29 -14 37 -1 67 31 75 105 90 162 33z m531 -33 c-3 -10 -5 -4 -5 12 0 17 2 24 5 18 2 -7 2 -21 0 -30z m-20 -75 c-3 -7 -5 -2 -5 12 0 14 2 19 5 13 2 -7 2 -19 0 -25z m-20 -70 c-3 -7 -5 -2 -5 12 0 14 2 19 5 13 2 -7 2 -19 0 -25z m-20 -50 c-3 -8 -6 -5 -6 6 -1 11 2 17 5 13 3 -3 4 -12 1 -19z m-20 -50 c-3 -8 -6 -5 -6 6 -1 11 2 17 5 13 3 -3 4 -12 1 -19z m-710 -784 c-3 -3 -12 -4 -19 -1 -8 3 -5 6 6 6 11 1 17 -2 13 -5z m-40 -20 c-3 -3 -12 -4 -19 -1 -8 3 -5 6 6 6 11 1 17 -2 13 -5z m-40 -20 c-3 -3 -12 -4 -19 -1 -8 3 -5 6 6 6 11 1 17 -2 13 -5z m-1240 -20 c-3 -3 -12 -4 -19 -1 -8 3 -5 6 6 6 11 1 17 -2 13 -5z m1190 0 c-3 -3 -12 -4 -19 -1 -8 3 -5 6 6 6 11 1 17 -2 13 -5z m-1140 -20 c-3 -3 -12 -4 -19 -1 -8 3 -5 6 6 6 11 1 17 -2 13 -5z m1090 0 c-3 -3 -12 -4 -19 -1 -8 3 -5 6 6 6 11 1 17 -2 13 -5z m-1034 -21 c-7 -2 -19 -2 -25 0 -7 3 -2 5 12 5 14 0 19 -2 13 -5z m980 0 c-7 -2 -19 -2 -25 0 -7 3 -2 5 12 5 14 0 19 -2 13 -5z m-910 -20 c-7 -2 -19 -2 -25 0 -7 3 -2 5 12 5 14 0 19 -2 13 -5z m840 0 c-7 -2 -19 -2 -25 0 -7 3 -2 5 12 5 14 0 19 -2 13 -5z m-760 -20 c-7 -2 -21 -2 -30 0 -10 3 -4 5 12 5 17 0 24 -2 18 -5z m690 0 c-7 -2 -21 -2 -30 0 -10 3 -4 5 12 5 17 0 24 -2 18 -5z m-570 -20 c-13 -2 -33 -2 -45 0 -13 2 -3 4 22 4 25 0 35 -2 23 -4z m465 0 c-10 -2 -28 -2 -40 0 -13 2 -5 4 17 4 22 1 32 -1 23 -4z m-205 -20 c-29 -2 -77 -2 -105 0 -29 2 -6 3 52 3 58 0 81 -1 53 -3z"/>
</g>
</g>
  <g id="id15:id15" transform="matrix(1.25,0,0,1.25,0.0,0.0)"><g transform="translate(0.000000,160.000000) scale(0.040000,-0.040000)" fill="#010005" stroke="none">
<path d="M0 2000 l0 -2000 2000 0 2000 0 0 2000 0 2000 -2000 0 -2000 0 0 -2000z m2043 1573 c-24 -2 -62 -2 -85 0 -24 2 -5 4 42 4 47 0 66 -2 43 -4z m-180 -10 c-7 -2 -19 -2 -25 0 -7 3 -2 5 12 5 14 0 19 -2 13 -5z m300 0 c-7 -2 -19 -2 -25 0 -7 3 -2 5 12 5 14 0 19 -2 13 -5z m94 -9 c-3 -3 -12 -4 -19 -1 -8 3 -5 6 6 6 11 1 17 -2 13 -5z m41 -185 c187 -20 379 -81 549 -175 48 -27 93 -51 98 -53 34 -14 169 -125 258 -213 119 -117 147 -155 217 -299 48 -97 67 -123 35 -45 -8 20 -13 36 -10 36 6 0 22 -38 35 -83 5 -15 5 -25 1 -22 -5 2 -6 -8 -3 -23 5 -22 7 -23 10 -8 7 34 33 -53 34 -114 1 -41 3 -49 8 -30 7 23 8 22 11 -10 1 -19 2 -57 1 -85 0 -47 0 -48 7 -15 8 34 8 34 11 -15 3 -58 2 -357 -1 -430 -2 -49 -2 -49 -10 -15 -7 33 -7 32 -7 -15 1 -27 0 -66 -1 -85 -3 -32 -4 -33 -11 -10 -5 19 -7 11 -8 -30 -1 -62 -27 -147 -34 -114 -3 10 -5 0 -5 -23 -1 -51 -116 -298 -135 -287 -7 5 -8 3 -4 -5 11 -16 -61 -124 -76 -115 -7 4 -8 3 -4 -5 9 -14 -61 -104 -75 -96 -5 4 -6 0 -4 -8 7 -18 -171 -191 -187 -181 -6 4 -8 3 -5 -3 9 -14 -60 -66 -75 -57 -6 4 -8 3 -5 -3 9 -15 -98 -87 -115 -77 -7 4 -10 3 -5 -1 11 -13 -42 -43 -66 -38 -18 4 -19 3 -7 -6 13 -10 13 -11 0 -12 -8 -1 -24 -1 -35 0 -17 2 -17 0 -5 -8 13 -10 13 -11 0 -12 -8 -1 -24 -1 -35 0 -13 0 -15 -2 -6 -6 22 -9 -88 -55 -134 -56 -22 0 -31 -2 -21 -5 33 -7 -52 -33 -114 -34 -41 -1 -49 -3 -30 -8 23 -7 22 -8 -10 -11 -19 -1 -57 -2 -85 -1 -47 0 -48 0 -15 -7 34 -8 34 -8 -15 -11 -62 -3 -363 -3 -430 1 l-50 2 40 8 c39 7 38 7 -15 7 -30 -1 -71 0 -90 1 -32 3 -33 4 -10 11 19 5 11 7 -30 8 -62 1 -147 27 -114 34 10 3 0 5 -23 5 -51 1 -298 116 -287 135 4 7 3 8 -5 4 -14 -9 -111 51 -108 67 1 7 -5 11 -14 9 -9 -1 -22 5 -29 13 -7 8 -10 15 -6 15 3 0 -34 39 -83 88 -104 102 -132 143 -215 306 -117 229 -160 417 -160 691 1 266 45 461 159 686 125 249 342 488 565 619 319 189 631 258 988 219z m-1268 -133 c0 -2 -8 -10 -17 -17 -16 -13 -17 -12 -4 4 13 16 21 21 21 13z m1961 -13 c13 -16 12 -17 -3 -4 -17 13 -22 21 -14 21 2 0 10 -8 17 -17z m-2021 -36 c0 -2 -15 -16 -32 -33 l-33 -29 29 33 c28 30 36 37 36 29z m2096 -29 l29 -33 -32 29 c-31 28 -38 36 -30 36 2 0 16 -15 33 -32z m104 -103 c19 -19 32 -35 29 -35 -3 0 -20 16 -39 35 -19 19 -32 35 -29 35 3 0 20 -16 39 -35z m-2310 22 c0 -2 -15 -16 -32 -33 l-33 -29 29 33 c28 30 36 37 36 29z m-70 -81 c0 -2 -8 -10 -17 -17 -16 -13 -17 -12 -4 4 13 16 21 21 21 13z m2441 -13 c13 -16 12 -17 -3 -4 -17 13 -22 21 -14 21 2 0 10 -8 17 -17z m153 -229 c3 -8 2 -12 -4 -9 -6 3 -10 10 -10 16 0 14 7 11 14 -7z m-2937 -516 c-3 -8 -6 -5 -6 6 -1 11 2 17 5 13 3 -3 4 -12 1 -19z m-10 -100 c-3 -7 -5 -2 -5 12 0 14 2 19 5 13 2 -7 2 -19 0 -25z m-10 -180 c-2 -24 -4 -5 -4 42 0 47 2 66 4 43 2 -24 2 -62 0 -85z m3150 0 c-2 -24 -4 -5 -4 42 0 47 2 66 4 43 2 -24 2 -62 0 -85z m-3140 -120 c-3 -7 -5 -2 -5 12 0 14 2 19 5 13 2 -7 2 -19 0 -25z m10 -90 c-3 -8 -6 -5 -6 6 -1 11 2 17 5 13 3 -3 4 -12 1 -19z m304 -695 c13 -16 12 -17 -3 -4 -10 7 -18 15 -18 17 0 8 8 3 21 -13z m34 -43 c10 -11 16 -20 13 -20 -3 0 -13 9 -23 20 -10 11 -16 20 -13 20 3 0 13 -9 23 -20z m55 -65 c19 -19 32 -35 29 -35 -3 0 -20 16 -39 35 -19 19 -32 35 -29 35 3 0 20 -16 39 -35z m170 -157 c19 -15 31 -28 25 -28 -5 0 -40 28 -76 63 -36 34 -48 46 -25 27 23 -19 57 -47 76 -62z m1033 -365 c-24 -2 -62 -2 -85 0 -24 2 -5 4 42 4 47 0 66 -2 43 -4z"/>
<path d="M3502 2420 c0 -14 2 -19 5 -12 2 6 2 18 0 25 -3 6 -5 1 -5 -13z"/>
<path d="M3502 1580 c0 -14 2 -19 5 -12 2 6 2 18 0 25 -3 6 -5 1 -5 -13z"/>
<path d="M3461 1454 c0 -11 3 -14 6 -6 3 7 2 16 -1 19 -3 4 -6 -2 -5 -13z"/>
<path d="M3441 1404 c0 -11 3 -14 6 -6 3 7 2 16 -1 19 -3 4 -6 -2 -5 -13z"/>
<path d="M1398 553 c7 -3 16 -2 19 1 4 3 -2 6 -13 5 -11 0 -14 -3 -6 -6z"/>
<path d="M2588 553 c7 -3 16 -2 19 1 4 3 -2 6 -13 5 -11 0 -14 -3 -6 -6z"/>
<path d="M1448 533 c7 -3 16 -2 19 1 4 3 -2 6 -13 5 -11 0 -14 -3 -6 -6z"/>
<path d="M2538 533 c7 -3 16 -2 19 1 4 3 -2 6 -13 5 -11 0 -14 -3 -6 -6z"/>
<path d="M1568 493 c6 -2 18 -2 25 0 6 3 1 5 -13 5 -14 0 -19 -2 -12 -5z"/>
<path d="M2408 493 c6 -2 18 -2 25 0 6 3 1 5 -13 5 -14 0 -19 -2 -12 -5z"/>
</g>
</g>
</svg>
